<?xml version="1.0" standalone="no"?>
<!DOCTYPE svg PUBLIC "-//W3C//DTD SVG 20010904//EN"
 "http://www.w3.org/TR/2001/REC-SVG-20010904/DTD/svg10.dtd">
<svg version="1.0" xmlns="http://www.w3.org/2000/svg"
 width="3840.000000pt" height="2160.000000pt" viewBox="0 0 3840.000000 2160.000000"
 preserveAspectRatio="xMidYMid meet">

<g transform="translate(0.000000,2160.000000) scale(0.100000,-0.100000)"
fill="#000000" stroke="none">
<path d="M14519 15406 c-2 -2 -152 -6 -334 -10 -1070 -20 -2069 -116 -2740
-262 -572 -125 -965 -252 -1431 -464 -818 -373 -1652 -993 -2739 -2038 -320
-308 -3934 -3892 -5590 -5544 l-900 -898 2600 0 2600 0 175 173 c96 95 339
332 540 527 396 384 619 600 860 835 345 335 825 799 1360 1315 1524 1468
1718 1649 2060 1922 816 650 1521 882 2925 963 143 8 303 17 355 21 52 3 3094
8 6760 10 l6665 4 1725 1725 1725 1725 -8306 0 c-4568 0 -8308 -2 -8310 -4z"/>
<path d="M27505 10800 l-4610 -4610 2774 0 2774 0 4603 4604 c2532 2532 4604
4606 4604 4610 0 3 -1245 6 -2768 6 l-2767 0 -4610 -4610z"/>
<path d="M26915 11393 c-104 -2 -2930 -4 -6280 -6 -3349 -2 -6103 -6 -6120 -9
-16 -4 -109 -9 -205 -12 -498 -17 -1050 -73 -1390 -142 -832 -168 -1377 -472
-2133 -1192 -73 -69 -969 -962 -1993 -1984 l-1861 -1858 2416 0 2415 0 686
683 c377 376 730 721 785 766 131 108 311 228 440 291 204 100 474 173 760
205 352 39 300 38 4945 42 l4526 4 1604 1604 c882 882 1602 1605 1600 1607 -3
2 -90 2 -195 1z"/>
<path d="M30789 7338 c-1 -2 -2 -40 -3 -85 l-1 -83 182 0 183 0 0 -490 0 -490
100 0 100 0 0 490 0 490 185 0 185 0 0 85 0 85 -465 0 c-256 0 -466 -1 -466
-2z"/>
<path d="M31850 6765 l0 -575 95 0 95 0 0 437 c0 252 4 433 9 428 5 -6 47
-118 94 -250 46 -132 115 -324 152 -427 l68 -188 82 0 82 0 16 43 c24 62 218
605 263 732 l39 110 3 -442 2 -443 95 0 95 0 0 575 0 575 -138 0 -139 0 -101
-292 c-56 -161 -125 -362 -153 -445 -28 -84 -54 -153 -57 -153 -4 0 -44 105
-89 233 -45 127 -114 327 -155 442 l-74 210 -142 3 -142 3 0 -576z"/>
</g>
</svg>
